<svg width="150" height="51" viewBox="0 0 150 51" fill="none" xmlns="http://www.w3.org/2000/svg">
<path d="M37.3953 0H13.6047C6.09102 0 0 6.09102 0 13.6047V37.3953C0 44.909 6.09102 51 13.6047 51H37.3953C44.909 51 51 44.909 51 37.3953V13.6047C51 6.09102 44.909 0 37.3953 0Z" fill="#022131"/>
<path d="M19.0455 25.3573C17.5489 25.3573 16.2274 25.052 15.0712 24.4363C13.9149 23.8207 13.009 22.9647 12.3482 21.8686C11.6875 20.7724 11.3572 19.521 11.3572 18.1245C11.3572 16.728 11.6775 15.5367 12.3232 14.4506C12.9639 13.3644 13.8449 12.5035 14.9611 11.8828C16.0773 11.2571 17.3336 10.9468 18.7351 10.9468C20.1366 10.9468 21.3279 11.2421 22.3691 11.8277C23.4102 12.4134 24.2311 13.2292 24.8367 14.2704C25.4424 15.3115 25.7427 16.5028 25.7427 17.8442C25.7427 18.1095 25.7277 18.3798 25.7026 18.6551C25.6726 18.9304 25.6125 19.2357 25.5174 19.5761L13.6547 19.6311V16.6229L23.6454 16.5678L21.7734 17.8442C21.7534 17.0684 21.6333 16.4227 21.403 15.9021C21.1778 15.3816 20.8424 14.9811 20.3969 14.6958C19.9514 14.4105 19.4159 14.2704 18.7952 14.2704C18.1145 14.2704 17.5238 14.4305 17.0233 14.7509C16.5227 15.0712 16.1323 15.5167 15.862 16.0823C15.5867 16.6479 15.4516 17.3337 15.4516 18.1245C15.4516 18.9154 15.5967 19.6111 15.8921 20.1968C16.1874 20.7824 16.6028 21.2329 17.1384 21.5432C17.674 21.8535 18.3147 22.0137 19.0555 22.0137C19.7162 22.0137 20.3218 21.8936 20.8724 21.6583C21.423 21.4231 21.9036 21.0677 22.319 20.5922L24.7316 22.9747C24.0509 23.7906 23.23 24.3913 22.2639 24.7767C21.2979 25.1621 20.2317 25.3573 19.0555 25.3573H19.0455Z" fill="white"/>
<path d="M29.832 24.7767C28.866 24.3913 28.0451 23.7906 27.3644 22.9747L29.777 20.5922C30.1924 21.0677 30.6779 21.4181 31.2235 21.6583C31.7741 21.8936 32.3798 22.0137 33.0405 22.0137C33.7763 22.0137 34.417 21.8585 34.9575 21.5432C35.4981 21.2279 35.9136 20.7824 36.2039 20.1968C36.4992 19.6111 36.6444 18.9204 36.6444 18.1245C36.6444 17.3287 36.5092 16.6479 36.2339 16.0823C35.9586 15.5167 35.5732 15.0712 35.0727 14.7509C34.5721 14.4305 33.9815 14.2704 33.3008 14.2704C32.6751 14.2704 32.1445 14.4105 31.699 14.6958C31.2536 14.9811 30.9182 15.3816 30.693 15.9021C30.4677 16.4227 30.3426 17.0684 30.3226 17.8442L28.4505 16.5678L38.4413 16.6229V19.6311L26.5785 19.5761C26.4834 19.2357 26.4233 18.9304 26.3933 18.6551C26.3633 18.3798 26.3533 18.1095 26.3533 17.8442C26.3533 16.5028 26.6586 15.3115 27.2592 14.2704C27.8649 13.2292 28.6858 12.4134 29.7269 11.8277C30.768 11.2421 31.9793 10.9468 33.3608 10.9468C34.7423 10.9468 36.0187 11.2571 37.1349 11.8828C38.2511 12.5085 39.1321 13.3644 39.7727 14.4506C40.4134 15.5367 40.7388 16.763 40.7388 18.1245C40.7388 19.526 40.4084 20.7724 39.7477 21.8686C39.087 22.9647 38.176 23.8207 37.0248 24.4363C35.8685 25.052 34.5471 25.3573 33.0505 25.3573C31.8792 25.3573 30.8081 25.1621 29.842 24.7767H29.832Z" fill="white"/>
<path d="M37.1501 27.9151C37.0249 33.9316 32.0896 38.7918 26.0431 38.7918C19.9966 38.7918 15.0612 33.9316 14.9361 27.9151H10.7065C10.8317 36.2791 17.649 43.0214 26.0431 43.0214C34.4371 43.0214 41.2545 36.2791 41.3796 27.9151H37.1501Z" fill="#4DB547"/>
<path d="M68 41.2007V17.3015H73.3259V21.5872L72.4608 25.703L73.2559 29.7837V38.9703L68 41.2007ZM77.7517 34.4545C76.5965 34.4545 75.5513 34.2345 74.6062 33.7994C73.661 33.3643 72.8959 32.7592 72.3058 31.9841C71.7157 31.209 71.3756 30.3288 71.2856 29.3386V22.2474C71.3756 21.2322 71.7257 20.327 72.3258 19.5319C72.9259 18.7367 73.696 18.1066 74.6412 17.6465C75.5863 17.1865 76.6265 16.9564 77.7567 16.9564C79.322 16.9564 80.7273 17.3365 81.9575 18.0966C83.1877 18.8568 84.1679 19.8969 84.878 21.2122C85.5931 22.5274 85.9482 24.0227 85.9482 25.708C85.9482 27.3933 85.5981 28.8835 84.893 30.1888C84.1879 31.494 83.2177 32.5292 81.9725 33.3043C80.7273 34.0745 79.322 34.4645 77.7517 34.4645V34.4545ZM76.7466 29.6487C77.4867 29.6487 78.1368 29.4836 78.7019 29.1486C79.267 28.8135 79.7171 28.3484 80.0521 27.7483C80.3872 27.1482 80.5522 26.4681 80.5522 25.708C80.5522 24.9478 80.3872 24.2677 80.0521 23.6676C79.7171 23.0675 79.272 22.6024 78.7219 22.2674C78.1668 21.9323 77.5217 21.7673 76.7866 21.7673C76.0514 21.7673 75.3963 21.9323 74.8312 22.2674C74.2661 22.6024 73.821 23.0675 73.501 23.6676C73.1759 24.2677 73.0159 24.9478 73.0159 25.708C73.0159 26.4681 73.1759 27.1482 73.501 27.7483C73.826 28.3484 74.2661 28.8135 74.8312 29.1486C75.3963 29.4836 76.0364 29.6487 76.7516 29.6487H76.7466Z" fill="#022131"/>
<path d="M96.19 34.4896C94.3697 34.4896 92.7544 34.1145 91.3492 33.3644C89.9439 32.6142 88.8337 31.574 88.0286 30.2338C87.2184 28.8986 86.8184 27.3733 86.8184 25.668C86.8184 23.9627 87.2084 22.5124 87.9936 21.1872C88.7787 19.862 89.8489 18.8168 91.2091 18.0566C92.5694 17.2965 94.1047 16.9164 95.81 16.9164C97.5153 16.9164 98.9705 17.2765 100.236 17.9866C101.501 18.7018 102.506 19.6919 103.246 20.9622C103.986 22.2324 104.351 23.6826 104.351 25.3179C104.351 25.643 104.336 25.968 104.301 26.3031C104.266 26.6382 104.191 27.0132 104.076 27.4283L89.6189 27.4983V23.8327L101.791 23.7627L99.5106 25.3179C99.4856 24.3728 99.3356 23.5826 99.0605 22.9475C98.7855 22.3124 98.3754 21.8223 97.8353 21.4773C97.2952 21.1322 96.6401 20.9572 95.88 20.9572C95.0498 20.9572 94.3297 21.1522 93.7196 21.5473C93.1095 21.9373 92.6344 22.4824 92.2993 23.1726C91.9643 23.8627 91.7992 24.6928 91.7992 25.663C91.7992 26.6332 91.9793 27.4733 92.3343 28.1884C92.6894 28.9036 93.1995 29.4487 93.8546 29.8287C94.5097 30.2088 95.2899 30.3988 96.19 30.3988C96.9952 30.3988 97.7353 30.2538 98.4054 29.9638C99.0755 29.6737 99.6606 29.2436 100.171 28.6685L103.111 31.574C102.281 32.5642 101.276 33.2993 100.101 33.7694C98.9255 34.2395 97.6203 34.4796 96.19 34.4796V34.4896Z" fill="#022131"/>
<path d="M109.332 33.7794C108.157 33.3093 107.152 32.5742 106.322 31.584L109.262 28.6785C109.767 29.2536 110.357 29.6887 111.028 29.9737C111.698 30.2638 112.433 30.4088 113.243 30.4088C114.143 30.4088 114.918 30.2187 115.578 29.8387C116.239 29.4586 116.744 28.9135 117.099 28.1984C117.459 27.4833 117.634 26.6431 117.634 25.6729C117.634 24.7028 117.469 23.8726 117.134 23.1825C116.799 22.4924 116.329 21.9473 115.713 21.5572C115.103 21.1671 114.383 20.9671 113.553 20.9671C112.793 20.9671 112.143 21.1421 111.598 21.4872C111.058 21.8323 110.648 22.3223 110.372 22.9575C110.097 23.5926 109.947 24.3827 109.922 25.3279L107.642 23.7726L119.814 23.8426V27.5083L105.357 27.4383C105.242 27.0232 105.167 26.6481 105.132 26.3131C105.097 25.978 105.082 25.6529 105.082 25.3279C105.082 23.6926 105.452 22.2373 106.187 20.9721C106.927 19.7069 107.927 18.7117 109.197 17.9966C110.467 17.2815 111.943 16.9264 113.623 16.9264C115.303 16.9264 116.864 17.3065 118.224 18.0666C119.584 18.8267 120.659 19.8719 121.439 21.1971C122.225 22.5224 122.615 24.0126 122.615 25.6779C122.615 27.3832 122.21 28.9035 121.404 30.2438C120.599 31.579 119.489 32.6242 118.084 33.3743C116.679 34.1244 115.063 34.4995 113.243 34.4995C111.813 34.4995 110.513 34.2645 109.332 33.7894V33.7794Z" fill="#022131"/>
<path d="M131.606 34.4545C129.991 34.4545 128.566 34.0744 127.336 33.3143C126.101 32.5542 125.14 31.514 124.445 30.1988C123.75 28.8835 123.405 27.3883 123.405 25.703C123.405 24.0177 123.75 22.5224 124.445 21.2072C125.135 19.8919 126.106 18.8567 127.351 18.0916C128.596 17.3315 130.016 16.9514 131.606 16.9514C132.737 16.9514 133.772 17.1664 134.722 17.5915C135.667 18.0166 136.437 18.6167 137.037 19.3918C137.638 20.167 137.983 21.0571 138.078 22.0723V29.1636C137.988 30.1538 137.638 31.0489 137.037 31.8441C136.437 32.6392 135.667 33.2743 134.722 33.7444C133.777 34.2195 132.737 34.4545 131.606 34.4545ZM132.542 29.6487C133.302 29.6487 133.962 29.4836 134.512 29.1486C135.067 28.8135 135.497 28.3484 135.807 27.7483C136.117 27.1482 136.272 26.4581 136.272 25.673C136.272 24.8878 136.117 24.2377 135.807 23.6476C135.497 23.0625 135.062 22.5974 134.512 22.2624C133.957 21.9273 133.312 21.7623 132.577 21.7623C131.842 21.7623 131.191 21.9373 130.641 22.2824C130.086 22.6274 129.646 23.0925 129.311 23.6826C128.976 24.2727 128.811 24.9428 128.811 25.708C128.811 26.4731 128.966 27.1482 129.276 27.7483C129.586 28.3484 130.031 28.8135 130.606 29.1486C131.181 29.4836 131.827 29.6487 132.542 29.6487ZM141.293 34.1095H136.072V29.5787L136.867 25.4629L135.967 21.4172V11.2254L141.293 9V34.1095Z" fill="#022131"/>
<path d="M146.999 15.0161C146.189 15.0161 145.514 14.726 144.959 14.1509C144.403 13.5758 144.128 12.8857 144.128 12.0756C144.128 11.2654 144.403 10.5553 144.959 10.0002C145.514 9.44509 146.194 9.17004 146.999 9.17004C147.849 9.17004 148.539 9.44509 149.059 10.0002C149.579 10.5553 149.834 11.2454 149.834 12.0756C149.834 12.9057 149.574 13.5758 149.059 14.1509C148.539 14.726 147.854 15.0161 146.999 15.0161ZM144.333 34.1095V17.3015H149.659V34.1095H144.333Z" fill="#022131"/>
</svg>
