<svg width="122" height="70" viewBox="0 0 122 70" fill="none" xmlns="http://www.w3.org/2000/svg">
<path d="M0 47.9449V12.3604H7.93001V18.7416L6.64185 24.8697L7.82576 30.9457V44.624L0 47.9449ZM14.5197 37.9002C12.7997 37.9002 11.2435 37.5726 9.83619 36.9248C8.42889 36.277 7.28965 35.376 6.41102 34.2219C5.53239 33.0678 5.02606 31.7573 4.89203 30.283V19.7245C5.02606 18.213 5.54728 16.8652 6.4408 15.6813C7.33432 14.4974 8.48101 13.5592 9.88831 12.8742C11.2956 12.1891 12.8444 11.8466 14.5272 11.8466C16.8578 11.8466 18.9501 12.4125 20.7818 13.5443C22.6135 14.6761 24.073 16.2249 25.1303 18.1832C26.1951 20.1415 26.7237 22.3678 26.7237 24.8771C26.7237 27.3865 26.2025 29.6054 25.1526 31.5488C24.1028 33.4922 22.6582 35.0335 20.8042 36.1876C18.9501 37.3343 16.8578 37.9151 14.5197 37.9151V37.9002ZM13.0231 30.7446C14.1251 30.7446 15.0931 30.4989 15.9345 30C16.7759 29.5011 17.446 28.8086 17.9449 27.9151C18.4438 27.0216 18.6895 26.0089 18.6895 24.8771C18.6895 23.7454 18.4438 22.7327 17.9449 21.8392C17.446 20.9456 16.7833 20.2532 15.9643 19.7543C15.1377 19.2554 14.1772 19.0097 13.0826 19.0097C11.9881 19.0097 11.0127 19.2554 10.1713 19.7543C9.32986 20.2532 8.66716 20.9456 8.19062 21.8392C7.70663 22.7327 7.46835 23.7454 7.46835 24.8771C7.46835 26.0089 7.70663 27.0216 8.19062 27.9151C8.67461 28.8086 9.32986 29.5011 10.1713 30C11.0127 30.4989 11.9657 30.7446 13.0305 30.7446H13.0231Z" fill="#022131"/>
<path d="M41.9731 37.9523C39.2628 37.9523 36.8577 37.3939 34.7654 36.277C32.673 35.1601 31.02 33.6113 29.8212 31.6158C28.615 29.6277 28.0193 27.3567 28.0193 24.8176C28.0193 22.2785 28.6001 20.1191 29.7691 18.1459C30.9381 16.1728 32.5316 14.6165 34.5569 13.4847C36.5822 12.3529 38.8681 11.787 41.4072 11.787C43.9463 11.787 46.1131 12.3232 47.9969 13.3805C49.8808 14.4453 51.3774 15.9196 52.4795 17.8109C53.5815 19.7022 54.125 21.8615 54.125 24.2964C54.125 24.7803 54.1027 25.2643 54.0506 25.7632C53.9984 26.2621 53.8867 26.8206 53.7155 27.4386L32.1891 27.5428V22.0849L50.3127 21.9806L46.9173 24.2964C46.88 22.8891 46.6567 21.7126 46.2471 20.7669C45.8376 19.8213 45.227 19.0916 44.4229 18.5778C43.6187 18.064 42.6433 17.8034 41.5115 17.8034C40.2754 17.8034 39.2032 18.0938 38.2948 18.6821C37.3864 19.2628 36.679 20.0745 36.1801 21.102C35.6812 22.1296 35.4355 23.3656 35.4355 24.8101C35.4355 26.2547 35.7036 27.5056 36.2322 28.5704C36.7609 29.6351 37.5204 30.4468 38.4958 31.0127C39.4713 31.5786 40.6328 31.8615 41.9731 31.8615C43.1719 31.8615 44.2739 31.6456 45.2717 31.2137C46.2695 30.7818 47.1407 30.1415 47.9001 29.2852L52.2784 33.6113C51.0424 35.0856 49.5457 36.1802 47.7959 36.8801C46.0461 37.58 44.1027 37.9375 41.9731 37.9375V37.9523Z" fill="#022131"/>
<path d="M61.5413 36.895C59.7915 36.1951 58.2948 35.1005 57.0588 33.6262L61.437 29.3001C62.1891 30.1564 63.0677 30.8042 64.0655 31.2286C65.0632 31.6605 66.1578 31.8764 67.3641 31.8764C68.7043 31.8764 69.8585 31.5934 70.8413 31.0276C71.8242 30.4617 72.5763 29.65 73.1049 28.5853C73.641 27.5205 73.9017 26.2695 73.9017 24.825C73.9017 23.3805 73.6559 22.1445 73.1571 21.1169C72.6582 20.0894 71.9582 19.2777 71.0424 18.697C70.134 18.1162 69.0617 17.8183 67.8257 17.8183C66.6939 17.8183 65.7259 18.0789 64.9143 18.5927C64.1101 19.1065 63.4996 19.8362 63.09 20.7818C62.6805 21.7275 62.4571 22.904 62.4199 24.3112L59.0245 21.9955L77.1481 22.0998V27.5577L55.6217 27.4535C55.4504 26.8354 55.3387 26.277 55.2866 25.7781C55.2345 25.2792 55.2122 24.7952 55.2122 24.3112C55.2122 21.8764 55.7632 19.7096 56.8577 17.8258C57.9597 15.9419 59.4489 14.4602 61.3402 13.3954C63.2315 12.3306 65.4281 11.8019 67.93 11.8019C70.4318 11.8019 72.755 12.3678 74.7803 13.4996C76.8056 14.6314 78.4065 16.1876 79.5681 18.1608C80.7371 20.134 81.3179 22.3529 81.3179 24.8325C81.3179 27.3716 80.7148 29.6351 79.516 31.6307C78.3171 33.6188 76.6641 35.175 74.5718 36.2919C72.4795 37.4088 70.0744 37.9672 67.3641 37.9672C65.2345 37.9672 63.2985 37.6173 61.5413 36.9099V36.895Z" fill="#022131"/>
<path d="M94.7059 37.9002C92.3008 37.9002 90.1787 37.3343 88.347 36.2025C86.5078 35.0707 85.0782 33.522 84.0432 31.5637C83.0082 29.6054 82.4944 27.379 82.4944 24.8697C82.4944 22.3604 83.0082 20.134 84.0432 18.1757C85.0707 16.2174 86.5152 14.6761 88.3693 13.5369C90.2233 12.4051 92.338 11.8392 94.7059 11.8392C96.3887 11.8392 97.93 12.1593 99.3447 12.7923C100.752 13.4252 101.899 14.3187 102.792 15.4728C103.686 16.627 104.2 17.9523 104.341 19.4639V30.0223C104.207 31.4966 103.686 32.8295 102.792 34.0134C101.899 35.1973 100.752 36.143 99.3447 36.8429C97.9374 37.5503 96.3887 37.9002 94.7059 37.9002ZM96.0983 30.7446C97.23 30.7446 98.2129 30.4989 99.032 30C99.8585 29.5011 100.499 28.8086 100.96 27.9151C101.422 27.0216 101.653 25.994 101.653 24.825C101.653 23.656 101.422 22.688 100.96 21.8094C100.499 20.9382 99.851 20.2457 99.032 19.7468C98.2055 19.2479 97.2449 19.0022 96.1504 19.0022C95.0558 19.0022 94.0878 19.2628 93.2688 19.7766C92.4423 20.2904 91.787 20.9829 91.2881 21.8615C90.7892 22.7401 90.5435 23.7379 90.5435 24.8771C90.5435 26.0164 90.7744 27.0216 91.236 27.9151C91.6977 28.8086 92.3604 29.5011 93.2166 30C94.0729 30.4989 95.0335 30.7446 96.0983 30.7446ZM109.129 37.3864H101.355V30.6404L102.539 24.5123L101.199 18.4885V3.31348L109.129 0V37.3864Z" fill="#022131"/>
<path d="M117.625 8.95757C116.418 8.95757 115.413 8.5257 114.587 7.66941C113.76 6.81311 113.351 5.78556 113.351 4.57931C113.351 3.37305 113.76 2.31572 114.587 1.48921C115.413 0.662705 116.426 0.253174 117.625 0.253174C118.89 0.253174 119.918 0.662705 120.692 1.48921C121.467 2.31572 121.846 3.34327 121.846 4.57931C121.846 5.81535 121.459 6.81311 120.692 7.66941C119.918 8.5257 118.898 8.95757 117.625 8.95757ZM113.656 37.3865V12.3604H121.586V37.3865H113.656Z" fill="#022131"/>
<path d="M74.8177 42.5912C74.5869 53.5145 65.6368 62.3306 54.6613 62.3306C43.6859 62.3306 34.7358 53.5145 34.505 42.5912H26.8281C27.059 57.7662 39.4268 70 54.6539 70C69.881 70 82.2563 57.7662 82.4796 42.5912H74.8028H74.8177Z" fill="#4DB547"/>
</svg>
